{"title":"The Escape Artist S01E03 HDTV 480p x264 AAC E-Subs [GWC].mp4","uid":9189907,"size":148180893,"categoryP":"video","categoryS":"tv_shows","magnet":"?xt=urn:btih:3ea9c9065912bbf887863a907a62c2743585cf6d&amp;dn=The+Escape+Artist+S01E03+HDTV+480p+x264+AAC+E-Subs+%5BGWC%5D.mp4&amp;tr=udp%3A%2F%2Ftracker.openbittorrent.com%3A80&amp;tr=udp%3A%2F%2Fopen.demonii.com%3A1337&amp;tr=udp%3A%2F%2Ftracker.coppersurfer.tk%3A6969&amp;tr=udp%3A%2F%2Fexodus.desync.com%3A6969","seeders":1,"leechers":0,"uploader":"canc232","files":1,"time":1384369545,"description":"The Escape Artist S01E03 HDTV 480p x264 AAC E-Subs [GWC]\n\nSCREENS :\n &lt;a href=&quot;\nhttp://s20.postimg.org/dkg357nr1/the_escape_artist_s01e03_23_25_30.jpg&quot; rel=&quot;nofollow&quot; target=&quot;_NEW&quot;&gt;\nhttp://s20.postimg.org/dkg357nr1/the_escape_artist_s01e03_23_25_30.jpg&lt;/a&gt; &lt;a href=&quot;\nhttp://s20.postimg.org/s2dad7f25/the_escape_artist_s01e03_23_25_34.jpg&quot; rel=&quot;nofollow&quot; target=&quot;_NEW&quot;&gt;\nhttp://s20.postimg.org/s2dad7f25/the_escape_artist_s01e03_23_25_34.jpg&lt;/a&gt; &lt;a href=&quot;\nhttp://s20.postimg.org/9pcp2n4l9/the_escape_artist_s01e03_23_25_59.jpg&quot; rel=&quot;nofollow&quot; target=&quot;_NEW&quot;&gt;\nhttp://s20.postimg.org/9pcp2n4l9/the_escape_artist_s01e03_23_25_59.jpg&lt;/a&gt;\n\n\nMEDIA INFO :\n\nGeneral  \nFormat : MPEG-4 \nFormat profile : Base Media\nFile size : 141 MiB \nDuration : 57mn 4s \nOverall bit rate mode : Variable \nOverall bit rate : 346 Kbps\n\nVideo \nFormat : AVC  \nFormat profile : &lt;a class=&quot;__cf_email__&quot; href=&quot;/cdn-cgi/l/email-protection&quot; data-cfemail=&quot;3d75545a557d710e130d&quot;&gt;[email&amp;#160;protected]&lt;/a&gt;&lt;script cf-hash='f9e31' type=&quot;text/javascript&quot;&gt;\n/* &lt;![CDATA[ */!function(){try{var t=&quot;currentScript&quot;in document?document.currentScript:function(){for(var t=document.getElementsByTagName(&quot;script&quot;),e=t.length;e--;)if(t[e].getAttribute(&quot;cf-hash&quot;))return t[e]}();if(t&amp;&amp;t.previousSibling){var e,r,n,i,c=t.previousSibling,a=c.getAttribute(&quot;data-cfemail&quot;);if(a){for(e=&quot;&quot;,r=parseInt(a.substr(0,2),16),n=2;a.length-n;n+=2)i=parseInt(a.substr(n,2),16)^r,e+=String.fromCharCode(i);e=document.createTextNode(e),c.parentNode.replaceChild(e,c)}}}catch(u){}}();/* ]]&gt; */&lt;/script&gt; \nFormat settings, CABAC : Yes \nFormat settings, ReFrames : 4 frames \nDuration : 57mn 4s \nBit rate : 283 Kbps \nWidth : 720 pixels \nHeight : 404 pixels \nDisplay aspect ratio : 16:9\nFrame rate : 25.000 fps\nStream size : 115 MiB (82%) \nTitle : The Escape Artist S01E03 HDTV 480p x264 AAC E-Subs [GWC] \nWriting library : x264 core\n\nAudio \nFormat : AAC \nFormat profile : HE-AAC / LC \nDuration : 57mn 4s \nBit rate mode : Variable \nChannel(s) : 2 channels \nSampling rate : 48.0 KHz / 24.0 KHz \nStream size : 24.5 MiB (17%)  \nLanguage : English \n\nText \nFormat : Timed Text \nDuration : 56mn 35s \nBit rate mode : Variable \nStream size : 24.4 KiB (0%) \nLanguage : English ","torrent":{"xt":"urn:btih:3ea9c9065912bbf887863a907a62c2743585cf6d","amp;dn":"The+Escape+Artist+S01E03+HDTV+480p+x264+AAC+E-Subs+%5BGWC%5D.mp4","amp;tr":["udp%3A%2F%2Ftracker.openbittorrent.com%3A80","udp%3A%2F%2Fopen.demonii.com%3A1337","udp%3A%2F%2Ftracker.coppersurfer.tk%3A6969","udp%3A%2F%2Fexodus.desync.com%3A6969"],"infoHash":"3ea9c9065912bbf887863a907a62c2743585cf6d","infoHashBuffer":{"type":"Buffer","data":[62,169,201,6,89,18,187,248,135,134,58,144,122,98,194,116,53,133,207,109]},"announce":[],"urlList":[]}}